<?xml version="1.0" encoding="utf-8"?>
<!-- Generator: Adobe Illustrator 23.0.2, SVG Export Plug-In . SVG Version: 6.00 Build 0)  -->
<svg version="1.1" id="layer_1" xmlns="http://www.w3.org/2000/svg" xmlns:xlink="http://www.w3.org/1999/xlink" x="0px" y="0px"
	 viewBox="0 0 512 512" style="enable-background:new 0 0 512 512;" xml:space="preserve">
<style type="text/css">
	.st0{fill:#CBFFB4;}
	.st1{fill:#74FF7C;}
	.st2{fill:#FFFFFF;}
	.st3{fill:#45DF00;}
</style>
<path class="st0" d="M59.7,288c-4.1,1.5-8.4,2.2-12.8,2.2c-21.2,0-38.4-17.2-38.4-38.4s17.2-38.4,38.4-38.4c4.4,0,8.7,0.7,12.8,2.2"
	/>
<path class="st1" d="M503.4,401.1c-8.9,17.6-21.1,33.3-35.9,46.2c-42.6,37.5-107.5,56.2-181.7,56.2c-2.1,0-4.3,0-6.4-0.2
	c-80.6-1.3-150.7-29.8-188.9-71.7c-8.4-9.1-15.5-19.4-20.9-30.5c-0.5-1-0.9-2-1.4-3.1c-5.6-12.5-8.5-25.9-8.5-39.6V191.8
	c0-98.6,77.9-181.7,176.5-183.2c14.3-0.3,28.6,1.2,42.5,4.4c81.6,18.6,139.4,91.1,139.4,174.7v139.1c-0.2,16.6,3.9,33,12,47.4
	C441.4,393.7,465.4,409.9,503.4,401.1z"/>
<path class="st0" d="M460.8,446.2c-42.8,36.9-107.3,56-181.3,57.1c-80.6-1.3-150.7-29.8-188.9-71.7c-8.4-9.1-15.5-19.4-20.9-30.5
	c-0.5-1-0.9-2-1.4-3.1V176.3c0.2-88.1,71.8-159.3,159.9-159.1c10.8,0,21.7,1.1,32.3,3.3c74.2,14.9,127.6,80.1,127.6,155.8v194.5
	C388.1,370.7,388.1,424.8,460.8,446.2z"/>
<path class="st1" d="M324.2,224.6c15-15,39.3-15,54.3,0c15,15,15,39.3,0,54.3s-39.3,15-54.3,0"/>
<path class="st2" d="M315.7,236.7c2.9-2,6.1-3.6,9.5-4.6c7.6-2.2,15.7-2.2,23.3,0c3.4,1,6.6,2.5,9.5,4.6c2.6,1.8,4.8,4.1,6.4,6.8
	c3.1,5.1,3.1,11.5,0,16.6c-1.6,2.7-3.8,5-6.4,6.8c-2.9,2-6.1,3.6-9.5,4.6c-7.6,2.2-15.7,2.2-23.3,0c-3.4-1-6.6-2.6-9.5-4.7"/>
<path class="st2" d="M187.7,264.6h51.2v25.6c0,14.1-11.5,25.6-25.6,25.6c-14.1,0-25.6-11.5-25.6-25.6V264.6z"/>
<path class="st2" d="M46.9,290.2c4.4,0,8.7-0.7,12.8-2.2v70.5c0,13.6,2.9,27.1,8.5,39.6c0.4,1,0.9,2,1.4,3.1
	c5.4,11.2,12.5,21.4,20.9,30.5c38.2,41.9,108.3,70.4,188.9,71.7c2.1,0.2,4.3,0.2,6.4,0.2c5.2,0,10.4-0.1,15.6-0.3
	c-79.1-2.1-147.6-30.3-185.3-71.5c-8.4-9.1-15.5-19.4-20.9-30.5c-0.5-1-0.9-2-1.4-3.1c-5.6-12.5-8.5-25.9-8.5-39.6V288
	c-4.1,1.5-8.4,2.2-12.8,2.2c-21.2,0-38.4-17.2-38.4-38.4s17.2-38.4,38.4-38.4c4.4,0,8.7,0.7,12.8,2.2v-23.8
	C84.7,96.4,157.9,16.7,253.1,9.2c-5.6-0.4-11.2-0.7-16.9-0.6C137.6,10.1,59.7,93.2,59.7,191.8v23.8c-4.1-1.5-8.4-2.2-12.8-2.2
	c-21.2,0-38.4,17.2-38.4,38.4S25.7,290.2,46.9,290.2z"/>
<path class="st2" d="M502.2,403.2c0.4-0.7,0.9-1.4,1.2-2.1c-2.4,0.6-4.7,1-7,1.4C498.3,402.8,500.2,403.1,502.2,403.2z"/>
<path class="st2" d="M236.3,17.1c-17.6,0.5-35,3.6-51.7,9.1c-16.6,5.9-32.2,14.3-46.3,24.9c-21.8,16.4-39.4,37.7-51.4,62.1
	c-12,24.5-18.3,51.3-18.5,78.6H51.2c0.2-29.9,7.2-59.3,20.3-86.2c13.2-26.8,32.6-50.1,56.5-68.1c15.5-11.7,32.7-20.9,51-27.4
	c18.4-6.1,37.6-9.5,57-10.1L236.3,17.1z"/>
<g>
	<path class="st3" d="M166.9,30.9c2.1,0.6,4.3,0.6,6.3-0.1c2-0.8,3.6-2.4,4.5-4.4l0.5-1.6c0.1-0.6,0.2-1.1,0.2-1.7
		c0.1-0.5,0-1.1-0.1-1.6c-0.1-0.6-0.3-1.1-0.4-1.7c-0.8-2.1-2.4-3.8-4.5-4.7c-1.1-0.4-2.2-0.6-3.4-0.6c-3.6-0.1-6.9,2.1-8.2,5.5
		c-0.4,1.1-0.5,2.3-0.4,3.4c0.1,1.1,0.3,2.2,0.8,3.2C163.1,28.5,164.8,30.1,166.9,30.9z"/>
	<path class="st3" d="M46.9,298.7c1.4,0,2.8-0.2,4.3-0.4v60.1c0.1,16.1,3.7,31.9,10.7,46.3C92.7,468.9,182.6,512,285.8,512
		c109.1,0,191.2-39,225.3-107.1c1.5-3,1.1-6.5-0.9-9.1c-2-2.6-5.4-3.8-8.6-3c-40.4,9.4-58.2-12.8-64-22.8
		c-7.4-13.2-11.1-28.1-10.9-43.2V187.8c0-50.3-20.2-98.5-56-133.8C334.8,18.7,286.3-0.7,236,0.1l-17.8,1.2
		c-5.9,0.8-11.8,1.9-17.7,2.9C198.2,4.7,196.3,6,195,8c-1.2,2-1.6,4.4-1,6.6c1.2,4.4,5.6,7.1,10,6.2c5.3-0.9,10.7-1.9,16-2.6
		l16.2-1.1c45.7-0.7,89.8,17,122.4,49c32.6,32.1,50.9,75.9,50.9,121.6v139.1c-0.2,18.1,4.3,35.9,13.2,51.7
		c13.3,22.6,38.4,35.6,64.5,33.3c-35.2,53-107.4,83.1-201.5,83.1c-95.3,0-181-40.1-208.5-97.5c-5.9-12.2-9-25.5-9.1-39V191.8
		c0.2-27.2,6.5-54.1,18.5-78.6c12.1-24.4,29.7-45.7,51.4-62.1c2.1-1.7,4.3-3.3,6.6-4.8c3.8-2.6,4.8-7.8,2.4-11.7
		c-1.2-1.9-3.2-3.3-5.5-3.7c-2.2-0.5-4.6,0-6.5,1.3c-2.5,1.6-4.9,3.3-7.2,5.2c-23.9,18-43.2,41.3-56.4,68.1
		c-13.2,26.8-20.1,56.3-20.4,86.1v13.4c-1.4-0.1-2.8-0.4-4.3-0.4C21,204.9,0,225.9,0,251.8S21,298.7,46.9,298.7z M46.9,221.9
		c1.4,0,2.9,0.1,4.3,0.4v59c-1.4,0.2-2.8,0.3-4.3,0.4c-16.5,0-29.9-13.4-29.9-29.9S30.4,221.9,46.9,221.9z"/>
	<path class="st3" d="M364,272.9c-11.7,11.7-30.6,11.7-42.2,0c-3.3-3.2-8.7-3.2-12,0.1c-3.3,3.3-3.3,8.6-0.1,12
		c13.4,13.4,33.6,17.4,51.1,10.2c17.5-7.3,29-24.4,29-43.4s-11.4-36.1-29-43.4c-17.5-7.3-37.7-3.2-51.1,10.2
		c-3.2,3.4-3.2,8.7,0.1,12c3.3,3.3,8.6,3.3,12,0.1c2.7-2.7,5.9-4.9,9.5-6.4c11.2-4.7,24.2-2.2,32.8,6.4c5.6,5.6,8.7,13.2,8.7,21.1
		C372.7,259.7,369.6,267.3,364,272.9L364,272.9z"/>
	<path class="st3" d="M109.9,174.9c-5.5,2.7-10.5,6.4-14.5,11c-4.1,4.7-7.4,10.1-9.5,16c-1.7,4.4,0.6,9.3,5,11c4.4,1.6,9.3-0.6,11-5
		c1.4-3.9,3.6-7.5,6.3-10.7c2.5-2.9,5.6-5.3,9.1-6.9c6.8-3.3,14.7-3.3,21.5,0c3.5,1.7,6.5,4,9.1,6.9c2.7,3.1,4.9,6.7,6.3,10.7
		c1.1,2.9,3.6,4.9,6.6,5.4c3,0.5,6.1-0.6,8-3c1.9-2.4,2.5-5.6,1.4-8.4c-2.2-5.9-5.4-11.3-9.5-16c-4-4.6-9-8.4-14.5-11
		C134.6,169.4,121.3,169.4,109.9,174.9z"/>
	<path class="st3" d="M212.8,207.8c1.4-3.9,3.6-7.5,6.3-10.7c2.5-2.9,5.6-5.3,9.1-6.9c6.8-3.3,14.7-3.3,21.5,0
		c3.5,1.7,6.5,4,9.1,6.9c2.7,3.1,4.9,6.7,6.3,10.7c1.1,2.9,3.6,4.9,6.6,5.4c3,0.5,6.1-0.6,8-3c1.9-2.4,2.5-5.6,1.4-8.4
		c-2.2-5.9-5.4-11.3-9.5-16c-4-4.6-9-8.4-14.5-11c-11.4-5.5-24.8-5.5-36.2,0c-5.5,2.7-10.5,6.4-14.5,11c-4.1,4.7-7.4,10.1-9.5,16
		c-1.1,2.9-0.5,6.1,1.4,8.4c1.9,2.4,5,3.5,8,3C209.2,212.8,211.7,210.7,212.8,207.8L212.8,207.8z"/>
	<path class="st3" d="M110.9,256c-4.7,0-8.5,3.8-8.5,8.5c0,4.7,3.8,8.5,8.5,8.5h68.3v17.1c0,18.8,15.3,34.1,34.1,34.1
		s34.1-15.3,34.1-34.1v-17.1h8.5c4.7,0,8.5-3.8,8.5-8.5c0-4.7-3.8-8.5-8.5-8.5H110.9z M230.4,273.1v17.1c0,9.4-7.6,17.1-17.1,17.1
		s-17.1-7.6-17.1-17.1v-17.1H230.4z"/>
</g>
</svg>
